<?xml version="1.0" encoding="utf-8"?>
<!-- Generator: Adobe Illustrator 22.0.1, SVG Export Plug-In . SVG Version: 6.00 Build 0)  -->
<svg version="1.1" id="Layer_1" xmlns="http://www.w3.org/2000/svg" xmlns:xlink="http://www.w3.org/1999/xlink" x="0px" y="0px"
	 viewBox="0 0 1637.8 437.2" style="enable-background:new 0 0 1637.8 437.2;" xml:space="preserve">
<style type="text/css">
	.st0{clip-path:url(#SVGID_2_);}
	.st1{clip-path:url(#SVGID_4_);fill:#19255A;}
	.st2{clip-path:url(#SVGID_4_);fill:#FFFFFF;}
	.st3{clip-path:url(#SVGID_4_);fill:#E51937;}
	.st4{clip-path:url(#SVGID_4_);fill:#E5133A;}
</style>
<g id="logo_1_">
	<g>
		<defs>
			<rect id="SVGID_1_" y="0.2" width="1637.7" height="437.1"/>
		</defs>
		<clipPath id="SVGID_2_">
			<use xlink:href="#SVGID_1_"  style="overflow:visible;"/>
		</clipPath>
		<g class="st0">
			<defs>
				<rect id="SVGID_3_" y="0.2" width="1637.7" height="437.1"/>
			</defs>
			<clipPath id="SVGID_4_">
				<use xlink:href="#SVGID_3_"  style="overflow:visible;"/>
			</clipPath>
			<path class="st1" d="M585.8,247.8c0,39.7-25.9,67.9-63.9,67.9c-37.1,0-64.6-26.7-64.6-63.6s26.9-63.8,64.3-63.8
				c27.5,0,50.7,14.9,59.7,37.1l-31.8,10.9c-4.4-10.2-15.2-16.8-27.6-16.8c-18.2,0-30.4,13.1-30.4,32.5c0,19.2,12,32.3,30.4,32.3
				c12.7,0,23.7-6.2,27.5-15.5h-30.1v-21.1L585.8,247.8z"/>
			<path class="st1" d="M697.4,265c0,2.8-0.2,5.6-0.7,8.5h-69.4c2.1,10.7,8.9,16.3,19.1,16.3c7.5,0,13.8-3.3,16.9-8.8l28,9.6
				c-8.7,15.7-25.2,25.1-44.9,25.1c-29.2,0-50.8-21.3-50.8-49.9c0-28.7,21.4-49.8,50.8-49.8C676.6,216,697.4,237.5,697.4,265
				 M627.9,255.7h37.8c-2.8-9.3-9.6-14.4-19.3-14.4C637,241.3,630.5,246.4,627.9,255.7"/>
			<path class="st1" d="M773.8,284.4v28.2h-22.2c-20.7,0-33.3-12.6-33.3-33.4v-35.3h-17.1v-25.1l17.3,0.1l0.1-9.2l31.2-10.6v20h23.4
				v24.8h-22.7v29.8c0,6.7,4,10.7,10.8,10.7H773.8z"/>
			<path class="st1" d="M854.5,315.7c-36.9,0-64.5-27.3-64.5-63.6c0-36.5,27.6-63.8,64.5-63.8c27.9,0,50.3,16.2,58.7,41L882,240
				c-4.2-12.4-14.6-20.5-27.4-20.5c-17.2,0-29.8,13.8-29.8,32.6c0,18.7,12.6,32.3,29.8,32.3c13.1,0,23.4-8.2,27.1-21l31.6,10.9
				C904.9,299.4,882.5,315.7,854.5,315.7"/>
			<path class="st1" d="M922.1,265.9c0-29,21.9-49.8,52.4-49.8c30.4,0,52.4,20.8,52.4,49.8c0,28.9-22,49.8-52.4,49.8
				C944.1,315.7,922.1,294.7,922.1,265.9 M974.6,286.7c11.7,0,20.2-8.5,20.2-20.9c0-12.3-8.4-20.9-20.2-20.9
				c-11.8,0-20.2,8.5-20.2,20.9C954.4,278.2,962.8,286.7,974.6,286.7"/>
			<path class="st1" d="M1185.3,254v58.7h-32.2V258c0-9.8-3.6-14.5-10.4-14.5c-8.9,0-13.4,6.1-13.4,17.9v51.3h-31.4V258
				c0-9.5-3.6-14.5-10.3-14.5c-8.7,0-13.5,6.2-13.5,17.9v51.3h-32.2v-93.6h22.7l4.6,10c6.8-7.9,16.6-12.8,27.3-12.8
				c11.4,0,21,5.1,26.8,13.8c6.7-8.5,17.1-13.8,28.7-13.8C1172,216.3,1185.3,231.9,1185.3,254"/>
			<path class="st1" d="M1308.2,265.9c0,29.1-20.4,49.9-49,49.9c-8.5,0-16.2-2.2-22.8-6.2v36.8h-31.8V219.1h21.9l4,7.4
				c7.7-6.7,17.6-10.5,28.7-10.5C1287.7,216,1308.2,236.7,1308.2,265.9 M1275.8,265.8c0-12.3-8.9-21.4-20.9-21.4
				s-20.9,9.1-20.9,21.4s8.9,21.4,20.9,21.4C1266.8,287.3,1275.8,278.1,1275.8,265.8"/>
			<rect x="1323" y="185.3" class="st1" width="32.2" height="127.3"/>
			<path class="st1" d="M1375.4,224.1h32.2v88.6h-32.2V224.1z M1375.7,185.1h31.7v27.3h-31.7V185.1z"/>
			<path class="st1" d="M1524.3,265c0,2.8-0.2,5.6-0.7,8.5h-69.4c2.1,10.7,8.9,16.3,19.1,16.3c7.5,0,13.8-3.3,16.9-8.8l28,9.6
				c-8.7,15.7-25.2,25.1-44.9,25.1c-29.2,0-50.8-21.3-50.8-49.9c0-28.7,21.4-49.8,50.8-49.8C1503.4,216,1524.3,237.5,1524.3,265
				 M1454.7,255.7h37.8c-2.8-9.3-9.6-14.4-19.3-14.4C1463.9,241.3,1457.4,246.4,1454.7,255.7"/>
			<path class="st1" d="M1637.7,185.3v127.3h-23.8l-3-6.9c-7.6,6.4-17.3,10.1-28.2,10.1c-28.7,0-49.1-20.9-49.1-49.9
				c0-29.1,20.4-49.8,49.1-49.8c8.6,0,16.5,2.3,23.2,6.5v-37.2L1637.7,185.3L1637.7,185.3z M1607.9,265.9c0-12.2-8.9-21.4-20.9-21.4
				s-20.9,9.2-20.9,21.4c0,12.2,8.9,21.4,20.9,21.4S1607.9,278.1,1607.9,265.9"/>
			<path class="st2" d="M252.3,435.8c-1.4-0.3-35-7.4-68.2-35.2c-30.6-25.6-66.7-74.1-65.4-160.3l0.1-8.4l14.5-5
				c1.2-8.2,3.9-21.2,10.2-35.1c4.8-10.4,10.8-19.5,17.9-27.2c-1.3,0.4-2.5,0.9-3.8,1.4c-15,5.6-35.2,12.1-58,12.1
				c-26.6,0-49.9-8.9-69.5-26.3C-17,109.6,5.1,46.2,6,43.5l8.3-23.1l13.1,20.7c0.2,0.3,19.2,29.2,52.6,33.5c-4-8-6.7-18.6-5.8-32.1
				l1.2-17.1l15.7,7c0.1,0,13.6,5.8,32.5,5.8c17.8,0,34.5-4.9,49.6-14.7c24.4-15.7,45.5-23.3,64.7-23.3c26.4,0,48.5,14.4,65.8,43
				l9.8-4.9l6.1,6.7c0.5,0.6,12.8,14.2,18.4,35c4.6,17.2,5.4,42.2-13.6,68.8c15.9,11.8,42.3,37,49.4,78.8l15.2,4.8l0.8,7.9
				c0.2,1.5,3.7,38.2-10.5,80.5c-13.3,39.5-45.1,91.5-121.2,114.8l-2.9,0.9L252.3,435.8z"/>
			<path class="st2" d="M378,241.4l-14.9-4.7c-6.2-59.4-56.3-85.2-56.3-85.2c47.2-51.2,4.1-98.5,4.1-98.5L299,58.9
				C268.8-0.3,227.1,3.1,179.9,33.4c-47.2,30.3-93.5,9.7-93.5,9.7c-2.2,31.4,19.3,42,19.3,42c-56.9,12-88.4-37.6-88.4-37.6
				s-20.9,58,20.9,95.4s92.2,20.6,115.3,11.9c34.6-13,63.3-7.4,63.3-7.4c-69.7,14.1-72.3,88.4-72.3,88.4l-13.8,4.7
				c-2.5,157.6,124,183.5,124,183.5C392.5,381.9,378,241.4,378,241.4 M253.8,215.5l-77.5,26.4l-13.2,4.5l13.2-4.5L253.8,215.5z
				 M174.5,352.9c-15.6-22.4-27.4-53.4-28.8-96.2c0-1.4-0.1-2.9-0.1-4.3c0,1.5,0.1,2.9,0.1,4.3C147.1,299.5,158.9,330.5,174.5,352.9
				c13.9,20,30.7,33.2,45.5,41.8C205.2,386.1,188.4,373,174.5,352.9 M222.8,396.2c1.8,1,3.6,1.9,5.4,2.8
				C226.4,398.2,224.6,397.2,222.8,396.2 M233.2,401.4c1.6,0.7,3.2,1.4,4.8,2C236.5,402.8,234.9,402.1,233.2,401.4 M244.4,405.8
				c-1.3-0.5-2.7-1-4.2-1.5C241.7,404.9,243.1,405.4,244.4,405.8c3.9,1.4,7.2,2.3,9.4,2.8C251.6,408.1,248.3,407.2,244.4,405.8"/>
			<path class="st1" d="M378,241.4c0,0,14.5,140.4-123.3,182.6c0,0-126.4-25.9-124-183.5l13.8-4.7c0,0,2.5-74.3,72.3-88.4
				c0,0-28.7-5.6-63.3,7.4c-23.1,8.7-73.5,25.4-115.3-11.9c-41.8-37.3-20.9-95.4-20.9-95.4S48.7,97,105.5,85.3
				c0,0-21.4-10.6-19.3-42c0,0,46.3,20.6,93.5-9.7c47.2-30.4,89-33.7,119.1,25.5l11.9-5.9c0,0,43.1,47.3-4.1,98.5
				c0,0,50.1,25.8,56.3,85.2L378,241.4z M282.9,126.2c0,0,20.9-28.8-5.8-74.8c-16.9-24.3-33.2-24.3-39.1-24.3
				c-13.7,0-30.6,6.4-50.2,19c-2.3,1.5-4.6,2.9-7,4.2c-17.7,9.8-37,14.7-57.1,14.3c-7-0.2-13.5-0.2-19.1-1.1
				c15.2,20.5,30.8,20.6,31,20.6c0,0-37.6,44.6-108.7-4.6c0,1.8,0,3.7,0.1,5.6c0.8,15.1,6,32.6,21.9,46.1
				c25.3,21.5,46.5,24.7,109.3,4.9c27.1-8.6,54.9-9.4,68.8-2.9c8.3,3.9,12.7,9.8,15.2,15c0,0,0.1-0.1,0.1-0.3
				c2.5-4.6,36.9-68.9-42.4-81.2C199.8,66.8,272.1,46.3,282.9,126.2 M253.8,408.6V215.5l-77.5,26.4l-30.8,10.5
				c0,1.5,0.1,2.9,0.1,4.3c1.4,42.8,13.3,73.8,28.8,96.2C202.2,393,241.7,405.6,253.8,408.6 M187,216.3l33-0.9
				c-1-38.3,12.2-56,12.2-56c-45.8,2.7-63.4,35.5-69.2,57.5L187,216.3z"/>
			<path class="st3" d="M277.1,51.4c26.7,46,5.8,74.8,5.8,74.8c-10.8-79.9-83.1-59.4-83.1-59.4c17.7-17.9,36.1-14.3,36.1-14.3
				c-12.6-12.2-32.1-11.5-55.2-2.2c2.4-1.3,4.7-2.7,7-4.2c19.6-12.6,36.5-19,50.2-19C243.9,27,260.2,27,277.1,51.4"/>
			<path class="st2" d="M199.8,66.8c79.3,12.3,45,76.6,42.4,81.2c0-5.1-1.9-85.4-108.6-29.4c-21.7,11.4-103,29.9-106.7-33.5
				c-0.1-1.9-0.1-3.8-0.1-5.6c71.1,49.2,108.7,4.6,108.7,4.6c-0.3,0-15.8-0.1-31.1-20.6c5.6,0.9,12.1,0.9,19.1,1.1
				c20.1,0.4,39.4-4.5,57.1-14.3c23.1-9.3,42.6-9.9,55.2,2.2C236,52.5,217.5,48.9,199.8,66.8"/>
			<path class="st3" d="M242.3,148c-0.1,0.2-0.1,0.3-0.1,0.3c-2.4-5.2-6.9-11.1-15.2-15c-13.9-6.5-41.7-5.7-68.8,2.9
				c-62.8,19.9-84,16.6-109.3-4.9C33,117.8,27.8,100.3,27,85.2c3.7,63.4,85,44.9,106.7,33.5C240.4,62.5,242.3,142.8,242.3,148"/>
			<path class="st3" d="M220,215.5l-33,0.9c0-38.6,45.2-56.9,45.2-56.9S219,177.2,220,215.5"/>
			<path class="st2" d="M232.3,159.5c0,0-45.2,18.3-45.2,56.9l-24,0.6C168.8,195,186.4,162.2,232.3,159.5"/>
			<path class="st4" d="M176.4,241.9l-30.8,10.5c0,1.5,0.1,2.9,0.1,4.3c1.4,42.8,13.3,73.8,28.8,96.2c27.7,40.1,67.2,52.7,79.3,55.7
				V215.5L176.4,241.9z"/>
			<path class="st1" d="M225,309.8v68.4c-4.6-3.3-9.9-7.4-15.6-12.5v-61.4C214.3,306.3,219.5,308.2,225,309.8"/>
			<path class="st1" d="M194.5,297.1v53c-5-6-9.9-12.9-14.3-20.5v-41.5C184.3,291,189.1,294.1,194.5,297.1"/>
			<path class="st3" d="M282.1,309.8v68.4c4.6-3.3,9.9-7.4,15.6-12.5v-61.4C292.8,306.3,287.6,308.2,282.1,309.8"/>
			<path class="st3" d="M312.5,297.1v53c5-6,9.9-12.9,14.3-20.5v-41.5C322.8,291,318,294.1,312.5,297.1"/>
			<path class="st1" d="M515.2,392.5c-0.1,17.5-11.8,30.5-28.6,30.5c-16.5,0-29-12.4-29-29.2c0-16.8,12.2-29.3,28.8-29.3
				c12.4,0,23,7,26.9,17.4l-11.3,3.9c-2.4-6-8.3-9.8-15.4-9.8c-9.9,0-16.7,7.2-16.7,17.7c0,10.4,6.6,17.6,16.7,17.6
				c7.2,0,13.5-3.8,15.6-9.6h-16.8v-9.3h29.8V392.5z"/>
			<path class="st1" d="M574.2,393.7c0,16.2-12,28.1-28.4,28.1h-21.2v-56h21.2C562.2,365.8,574.2,377.5,574.2,393.7 M561.7,393.7
				c0-9.9-6.7-16.7-16.3-16.7h-8.8v33.5h8.8C555.1,410.5,561.7,403.5,561.7,393.7"/>
			<path class="st1" d="M625.2,385c0,11-8.5,19.3-19.8,19.3H596v17.5h-12.1v-56h21.5C616.6,365.8,625.2,374,625.2,385 M612.9,385
				c0-4.7-3.2-8-8-8H596v16.1h8.9C609.7,393.1,612.9,389.7,612.9,385"/>
			<path class="st1" d="M653.5,402.7h-7.8v19.1h-12.1v-56h22.6c11.2,0,19.6,7.7,19.6,18.5c0,7.3-4,13.3-10.2,16.3l12.4,21.2h-13.5
				L653.5,402.7z M645.7,391.5h9.7c5.1,0,8.1-3,8.1-7.3c0-4.2-3-7.3-8.1-7.3h-9.7V391.5z"/>
			<path class="st1" d="M731.3,423c-16.4,0-28.9-12.6-28.9-29.1c0-16.7,12.5-29.3,28.9-29.3c12.3,0,22.3,7.3,26.1,18.5l-11.1,3.8
				c-2.3-6.6-7.9-10.7-15-10.7c-9.5,0-16.6,7.6-16.6,17.7c0,10.1,7.2,17.6,16.6,17.6c7.4,0,13-4.5,15.1-11.5l11.3,3.9
				C753.9,415.4,743.8,423,731.3,423"/>
			<path class="st1" d="M763.7,400.2c0-13.1,10-22.8,23.4-22.8c13.3,0,23.4,9.7,23.4,22.8c0,13-10,22.8-23.4,22.8
				C773.6,423,763.7,413.2,763.7,400.2 M798.5,400.2c0-7-4.8-11.8-11.5-11.8c-6.7,0-11.5,4.8-11.5,11.8S780.3,412,787,412
				C793.7,412,798.5,407.2,798.5,400.2"/>
			<path class="st1" d="M883.1,394.7v27.1h-11.7v-25.2c0-5.8-2.3-8.8-6.5-8.8c-5.2,0-8.3,3.8-8.3,10.6v23.4h-11.4v-25.2
				c0-5.8-2.2-8.8-6.4-8.8c-5.3,0-8.4,3.8-8.4,10.6v23.4h-11.7v-43.2h8.2l2.2,5.4c3.1-3.9,7.8-6.4,12.9-6.4c5.5,0,10,2.6,12.5,6.9
				c3-4.2,7.9-6.9,13.4-6.9C876.8,377.5,883.1,384.6,883.1,394.7"/>
			<path class="st1" d="M917.3,377.3c13,0,22.6,9.7,22.6,22.8c0,13.1-9.6,22.9-22.6,22.9c-4.5,0-8.5-1.3-11.9-3.6v17.9h-11.7v-58.8
				h7.7l2,3.9C907.2,379.2,911.9,377.3,917.3,377.3 M928.1,400.2c0-6.8-5-11.8-11.8-11.8c-6.8,0-11.8,5.1-11.8,11.8
				c0,6.7,5,11.8,11.8,11.8C923.2,412,928.1,407,928.1,400.2"/>
			<rect x="948.3" y="363" class="st1" width="11.7" height="58.8"/>
			<path class="st1" d="M971.2,378.6h11.7v43.2h-11.7V378.6z M971.2,361.9h11.6v10.9h-11.6V361.9z"/>
			<path class="st1" d="M1038.1,378.5v43.2h-9.2l-1-3.9c-3.7,3.2-8.5,5.2-14,5.2c-13,0-22.7-9.8-22.7-22.9c0-13,9.7-22.8,22.7-22.8
				c5.5,0,10.5,2,14.2,5.3l1.2-4.1H1038.1z M1026.6,400.1c0-6.8-5-11.8-11.8-11.8c-6.8,0-11.8,5.1-11.8,11.8c0,6.8,5,11.8,11.8,11.8
				C1021.6,411.9,1026.6,406.9,1026.6,400.1"/>
			<path class="st1" d="M1089.9,395.6v26.2h-11.7v-24.3c0-6.5-2.5-9.7-7.5-9.7c-6,0-9.7,4.3-9.7,11.3v22.7h-11.7v-43.2h8l2.3,5.3
				c3.3-3.9,8.4-6.4,14.3-6.4C1083.7,377.5,1089.9,384.6,1089.9,395.6"/>
			<path class="st1" d="M1120.7,423c-13,0-22.9-10-22.9-23s9.9-22.7,23-22.7c11.2,0,19.9,7.1,22,17.7h-11.6
				c-1.9-4.2-5.8-6.7-10.4-6.7c-6.3,0-11.1,5.1-11.1,11.8c0,6.7,4.8,11.9,11.1,11.9c4.7,0,8.5-2.6,10.4-7.2l10.8,3.7
				C1138.7,417.3,1130.6,423,1120.7,423"/>
			<path class="st1" d="M1192.5,400c0,1.1-0.1,2.3-0.2,3.4h-32.7c1,5.9,4.9,9.1,10.6,9.1c4.1,0,7.4-1.9,9.2-5l10.7,3.7
				c-3.9,7.3-11.2,11.7-19.9,11.7c-12.8,0-22.4-9.9-22.4-22.8c0-13,9.6-22.8,22.4-22.8C1183.4,377.3,1192.5,387.6,1192.5,400
				 M1159.9,395.5h20.9c-1.7-5.3-5.4-8.1-10.7-8.1C1164.9,387.3,1161.2,390.3,1159.9,395.5"/>
		</g>
	</g>
</g>
</svg>
