<svg width="400" height="400" xmlns="http://www.w3.org/2000/svg" xmlns:xlink="http://www.w3.org/1999/xlink">
 <!-- Created with Method Draw - http://github.com/duopixel/Method-Draw/ -->

 <g>
  <title>background</title>
  <rect fill="none" id="canvas_background" height="402" width="402" y="-1" x="-1"/>
  <g display="none" overflow="visible" y="0" x="0" height="100%" width="100%" id="canvasGrid">
   <rect fill="url(#gridpattern)" stroke-width="0" y="0" x="0" height="100%" width="100%"/>
  </g>
 </g>
 <g>
  <title>Layer 1</title>
  <style transform="matrix(0.006627591452436299,0,0,0.006627591452436299,0,0) " type="text/css">.st0{clip-path:url(#SVGID_2_);}
	.st1{clip-path:url(#SVGID_4_);fill:#19255A;}
	.st2{clip-path:url(#SVGID_4_);fill:#FFFFFF;}
	.st3{clip-path:url(#SVGID_4_);fill:#E51937;}
	.st4{clip-path:url(#SVGID_4_);fill:#E5133A;}</style>
  <g stroke="null" id="svg_57">
   <g stroke="null" transform="matrix(0.9115783325461875,0,0,0.9115783325461875,-40149.5766182837,-27156.193384696056) " id="svg_9">
    <g stroke="null" id="svg_15">
     <defs stroke="null" transform="translate(1.0969984531402588,0) translate(1.0969984531402588,0) translate(1.0969984531402588,0) translate(1.0969984531402588,0) translate(1.0969984531402588,0) translate(1.0969984531402588,0) translate(1.0969984531402588,0) translate(1.0969984531402588,0) translate(1.0969984531402588,0) translate(1.0969984531402588,0) translate(1.0969984531402588,0) translate(-1.0969984531402588,0) translate(-1.0969984531402588,0) translate(-1.0969984531402588,0) translate(-1.0969984531402588,0) translate(1.0969984531402588,0) translate(-1.0969984531402588,0) translate(-1.0969984531402588,0) translate(-1.0969984531402588,0) translate(-1.0969984531402588,0) translate(1.0969984531402588,0) translate(1.0969984531402588,0) translate(1.0969984531402588,0) translate(1.0969984531402588,0) translate(1.0969984531402588,0) translate(1.0969984531402588,0) translate(1.0969984531402588,0) translate(1.0969984531402588,0) translate(1.0969984531402588,0) translate(1.0969984531402588,0) translate(1.0969984531402588,0) translate(1.0969984531402588,0) translate(1.0969984531402588,0) translate(1.0969984531402588,0) translate(1.0969984531402588,0) translate(1.0969984531402588,0) translate(1.0969984531402588,0) translate(1.0969984531402588,0) translate(1.0969984531402588,0) translate(1.0969984531402588,0) translate(1.0969984531402588,0) translate(1.0969984531402588,0) translate(1.0969984531402588,0) translate(1.0969984531402588,0) translate(1.0969984531402588,0) translate(1.0969984531402588,0) translate(1.0969984531402588,0) translate(1.0969984531402588,0) translate(1.0969984531402588,0) translate(1.0969984531402588,0) translate(1.0969984531402588,0) translate(1.0969984531402588,0) translate(1.0969984531402588,0) translate(1.0969984531402588,0) translate(1.0969984531402588,0) translate(1.0969984531402588,0) translate(1.0969984531402588,0) translate(1.0969984531402588,0) translate(1.0969984531402588,0) translate(1.0969984531402588,0) translate(1.0969984531402588,0) translate(1.0969984531402588,0) translate(1.0969984531402588,0) translate(1.0969984531402588,0) translate(1.0969984531402588,0) translate(1.0969984531402588,0) translate(1.0969984531402588,0) translate(1.0969984531402588,0) translate(1.0969984531402588,0) translate(1.0969984531402588,0) translate(1.0969984531402588,0) translate(1.0969984531402588,0) translate(1.0969984531402588,0) translate(1.0969984531402588,0) translate(1.0969984531402588,0) translate(0,-1.0969984531402588) translate(0,-1.0969984531402588) translate(0,-1.0969984531402588) translate(0,-1.0969984531402588) translate(52.392173767089844,19.36232566833496) translate(1.1799933910369873,-3.637978807091713e-12) translate(1.1799933910369873,-3.637978807091713e-12) translate(1.1799933910369873,-3.637978807091713e-12) translate(1.1799933910369873,-3.637978807091713e-12) translate(1.1799933910369873,-3.637978807091713e-12) translate(1.1799933910369873,-3.637978807091713e-12) translate(1.1799933910369873,-3.637978807091713e-12) translate(-1.1799933910369873,-3.637978807091713e-12) translate(-1.1799933910369873,-3.637978807091713e-12) translate(-1.1799933910369873,-3.637978807091713e-12) translate(-1.1799933910369873,-3.637978807091713e-12) translate(-1.1799933910369873,-3.637978807091713e-12) translate(-1.1799933910369873,-3.637978807091713e-12) translate(-1.1799933910369873,-3.637978807091713e-12) translate(-1.1799933910369873,-3.637978807091713e-12) translate(-1.1799933910369873,-3.637978807091713e-12) translate(-1.1799933910369873,-3.637978807091713e-12) translate(-1.1799933910369873,-3.637978807091713e-12) translate(-1.1799933910369873,-3.637978807091713e-12) translate(-1.1799933910369873,-3.637978807091713e-12) translate(-1.1799933910369873,-3.637978807091713e-12) translate(-1.1799933910369873,-3.637978807091713e-12) translate(-1.1799933910369873,-3.637978807091713e-12) translate(-1.1799933910369873,-3.637978807091713e-12) translate(-1.1799933910369873,-3.637978807091713e-12) translate(-1.1799933910369873,-3.637978807091713e-12) translate(-1.1799933910369873,-3.637978807091713e-12) translate(-1.1799933910369873,-3.637978807091713e-12) translate(-1.1799933910369873,-3.637978807091713e-12) translate(-1.1799933910369873,-3.637978807091713e-12) translate(0,-1.1799933910369873) translate(0,-1.1799933910369873) translate(0,-1.1799933910369873) translate(-1.1799933910369873,-3.637978807091713e-12) translate(-1.1799933910369873,-3.637978807091713e-12) translate(-1.1799933910369873,-3.637978807091713e-12) translate(0,4.719973564147949) translate(14.159920692443848,-1.1799933910369873) translate(50.739715576171875,5.899967193603516) translate(-157.67239379882812,-23.223064422607422) translate(-19.73275375366211,3.637978807091713e-12) translate(-2.242056131362915,-5.605140209197998) translate(-19.057477951049805,93.04532623291016) translate(323.6366882324219,-9.856955528259277) translate(837.8411865234375,-243.1382293701172) translate(42937.59765625,0) translate(0,29958.125) ">
      <rect stroke="null" height="437.1" width="1637.7" y="0.2" id="svg_13"/>
     </defs>
     <clipPath stroke="null" transform="translate(1.0969984531402588,0) translate(1.0969984531402588,0) translate(1.0969984531402588,0) translate(1.0969984531402588,0) translate(1.0969984531402588,0) translate(1.0969984531402588,0) translate(1.0969984531402588,0) translate(1.0969984531402588,0) translate(1.0969984531402588,0) translate(1.0969984531402588,0) translate(1.0969984531402588,0) translate(-1.0969984531402588,0) translate(-1.0969984531402588,0) translate(-1.0969984531402588,0) translate(-1.0969984531402588,0) translate(1.0969984531402588,0) translate(-1.0969984531402588,0) translate(-1.0969984531402588,0) translate(-1.0969984531402588,0) translate(-1.0969984531402588,0) translate(1.0969984531402588,0) translate(1.0969984531402588,0) translate(1.0969984531402588,0) translate(1.0969984531402588,0) translate(1.0969984531402588,0) translate(1.0969984531402588,0) translate(1.0969984531402588,0) translate(1.0969984531402588,0) translate(1.0969984531402588,0) translate(1.0969984531402588,0) translate(1.0969984531402588,0) translate(1.0969984531402588,0) translate(1.0969984531402588,0) translate(1.0969984531402588,0) translate(1.0969984531402588,0) translate(1.0969984531402588,0) translate(1.0969984531402588,0) translate(1.0969984531402588,0) translate(1.0969984531402588,0) translate(1.0969984531402588,0) translate(1.0969984531402588,0) translate(1.0969984531402588,0) translate(1.0969984531402588,0) translate(1.0969984531402588,0) translate(1.0969984531402588,0) translate(1.0969984531402588,0) translate(1.0969984531402588,0) translate(1.0969984531402588,0) translate(1.0969984531402588,0) translate(1.0969984531402588,0) translate(1.0969984531402588,0) translate(1.0969984531402588,0) translate(1.0969984531402588,0) translate(1.0969984531402588,0) translate(1.0969984531402588,0) translate(1.0969984531402588,0) translate(1.0969984531402588,0) translate(1.0969984531402588,0) translate(1.0969984531402588,0) translate(1.0969984531402588,0) translate(1.0969984531402588,0) translate(1.0969984531402588,0) translate(1.0969984531402588,0) translate(1.0969984531402588,0) translate(1.0969984531402588,0) translate(1.0969984531402588,0) translate(1.0969984531402588,0) translate(1.0969984531402588,0) translate(1.0969984531402588,0) translate(1.0969984531402588,0) translate(1.0969984531402588,0) translate(1.0969984531402588,0) translate(1.0969984531402588,0) translate(1.0969984531402588,0) translate(1.0969984531402588,0) translate(0,-1.0969984531402588) translate(0,-1.0969984531402588) translate(0,-1.0969984531402588) translate(0,-1.0969984531402588) translate(52.392173767089844,19.36232566833496) translate(1.1799933910369873,-3.637978807091713e-12) translate(1.1799933910369873,-3.637978807091713e-12) translate(1.1799933910369873,-3.637978807091713e-12) translate(1.1799933910369873,-3.637978807091713e-12) translate(1.1799933910369873,-3.637978807091713e-12) translate(1.1799933910369873,-3.637978807091713e-12) translate(1.1799933910369873,-3.637978807091713e-12) translate(-1.1799933910369873,-3.637978807091713e-12) translate(-1.1799933910369873,-3.637978807091713e-12) translate(-1.1799933910369873,-3.637978807091713e-12) translate(-1.1799933910369873,-3.637978807091713e-12) translate(-1.1799933910369873,-3.637978807091713e-12) translate(-1.1799933910369873,-3.637978807091713e-12) translate(-1.1799933910369873,-3.637978807091713e-12) translate(-1.1799933910369873,-3.637978807091713e-12) translate(-1.1799933910369873,-3.637978807091713e-12) translate(-1.1799933910369873,-3.637978807091713e-12) translate(-1.1799933910369873,-3.637978807091713e-12) translate(-1.1799933910369873,-3.637978807091713e-12) translate(-1.1799933910369873,-3.637978807091713e-12) translate(-1.1799933910369873,-3.637978807091713e-12) translate(-1.1799933910369873,-3.637978807091713e-12) translate(-1.1799933910369873,-3.637978807091713e-12) translate(-1.1799933910369873,-3.637978807091713e-12) translate(-1.1799933910369873,-3.637978807091713e-12) translate(-1.1799933910369873,-3.637978807091713e-12) translate(-1.1799933910369873,-3.637978807091713e-12) translate(-1.1799933910369873,-3.637978807091713e-12) translate(-1.1799933910369873,-3.637978807091713e-12) translate(-1.1799933910369873,-3.637978807091713e-12) translate(0,-1.1799933910369873) translate(0,-1.1799933910369873) translate(0,-1.1799933910369873) translate(-1.1799933910369873,-3.637978807091713e-12) translate(-1.1799933910369873,-3.637978807091713e-12) translate(-1.1799933910369873,-3.637978807091713e-12) translate(0,4.719973564147949) translate(14.159920692443848,-1.1799933910369873) translate(50.739715576171875,5.899967193603516) translate(-157.67239379882812,-23.223064422607422) translate(-19.73275375366211,3.637978807091713e-12) translate(-2.242056131362915,-5.605140209197998) translate(-19.057477951049805,93.04532623291016) translate(323.6366882324219,-9.856955528259277) translate(837.8411865234375,-243.1382293701172) translate(42937.59765625,0) translate(0,29958.125) " id="svg_12">
      <use stroke="null" id="svg_16" xlink:href="#svg_13"/>
     </clipPath>
     <g stroke="null" id="svg_17" class="st0">
      <defs stroke="null" transform="translate(1.0969984531402588,0) translate(1.0969984531402588,0) translate(1.0969984531402588,0) translate(1.0969984531402588,0) translate(1.0969984531402588,0) translate(1.0969984531402588,0) translate(1.0969984531402588,0) translate(1.0969984531402588,0) translate(1.0969984531402588,0) translate(1.0969984531402588,0) translate(1.0969984531402588,0) translate(-1.0969984531402588,0) translate(-1.0969984531402588,0) translate(-1.0969984531402588,0) translate(-1.0969984531402588,0) translate(1.0969984531402588,0) translate(-1.0969984531402588,0) translate(-1.0969984531402588,0) translate(-1.0969984531402588,0) translate(-1.0969984531402588,0) translate(1.0969984531402588,0) translate(1.0969984531402588,0) translate(1.0969984531402588,0) translate(1.0969984531402588,0) translate(1.0969984531402588,0) translate(1.0969984531402588,0) translate(1.0969984531402588,0) translate(1.0969984531402588,0) translate(1.0969984531402588,0) translate(1.0969984531402588,0) translate(1.0969984531402588,0) translate(1.0969984531402588,0) translate(1.0969984531402588,0) translate(1.0969984531402588,0) translate(1.0969984531402588,0) translate(1.0969984531402588,0) translate(1.0969984531402588,0) translate(1.0969984531402588,0) translate(1.0969984531402588,0) translate(1.0969984531402588,0) translate(1.0969984531402588,0) translate(1.0969984531402588,0) translate(1.0969984531402588,0) translate(1.0969984531402588,0) translate(1.0969984531402588,0) translate(1.0969984531402588,0) translate(1.0969984531402588,0) translate(1.0969984531402588,0) translate(1.0969984531402588,0) translate(1.0969984531402588,0) translate(1.0969984531402588,0) translate(1.0969984531402588,0) translate(1.0969984531402588,0) translate(1.0969984531402588,0) translate(1.0969984531402588,0) translate(1.0969984531402588,0) translate(1.0969984531402588,0) translate(1.0969984531402588,0) translate(1.0969984531402588,0) translate(1.0969984531402588,0) translate(1.0969984531402588,0) translate(1.0969984531402588,0) translate(1.0969984531402588,0) translate(1.0969984531402588,0) translate(1.0969984531402588,0) translate(1.0969984531402588,0) translate(1.0969984531402588,0) translate(1.0969984531402588,0) translate(1.0969984531402588,0) translate(1.0969984531402588,0) translate(1.0969984531402588,0) translate(1.0969984531402588,0) translate(1.0969984531402588,0) translate(1.0969984531402588,0) translate(1.0969984531402588,0) translate(0,-1.0969984531402588) translate(0,-1.0969984531402588) translate(0,-1.0969984531402588) translate(0,-1.0969984531402588) translate(52.392173767089844,19.36232566833496) translate(1.1799933910369873,-3.637978807091713e-12) translate(1.1799933910369873,-3.637978807091713e-12) translate(1.1799933910369873,-3.637978807091713e-12) translate(1.1799933910369873,-3.637978807091713e-12) translate(1.1799933910369873,-3.637978807091713e-12) translate(1.1799933910369873,-3.637978807091713e-12) translate(1.1799933910369873,-3.637978807091713e-12) translate(-1.1799933910369873,-3.637978807091713e-12) translate(-1.1799933910369873,-3.637978807091713e-12) translate(-1.1799933910369873,-3.637978807091713e-12) translate(-1.1799933910369873,-3.637978807091713e-12) translate(-1.1799933910369873,-3.637978807091713e-12) translate(-1.1799933910369873,-3.637978807091713e-12) translate(-1.1799933910369873,-3.637978807091713e-12) translate(-1.1799933910369873,-3.637978807091713e-12) translate(-1.1799933910369873,-3.637978807091713e-12) translate(-1.1799933910369873,-3.637978807091713e-12) translate(-1.1799933910369873,-3.637978807091713e-12) translate(-1.1799933910369873,-3.637978807091713e-12) translate(-1.1799933910369873,-3.637978807091713e-12) translate(-1.1799933910369873,-3.637978807091713e-12) translate(-1.1799933910369873,-3.637978807091713e-12) translate(-1.1799933910369873,-3.637978807091713e-12) translate(-1.1799933910369873,-3.637978807091713e-12) translate(-1.1799933910369873,-3.637978807091713e-12) translate(-1.1799933910369873,-3.637978807091713e-12) translate(-1.1799933910369873,-3.637978807091713e-12) translate(-1.1799933910369873,-3.637978807091713e-12) translate(-1.1799933910369873,-3.637978807091713e-12) translate(-1.1799933910369873,-3.637978807091713e-12) translate(0,-1.1799933910369873) translate(0,-1.1799933910369873) translate(0,-1.1799933910369873) translate(-1.1799933910369873,-3.637978807091713e-12) translate(-1.1799933910369873,-3.637978807091713e-12) translate(-1.1799933910369873,-3.637978807091713e-12) translate(0,4.719973564147949) translate(14.159920692443848,-1.1799933910369873) translate(50.739715576171875,5.899967193603516) translate(-157.67239379882812,-23.223064422607422) translate(-19.73275375366211,3.637978807091713e-12) translate(-2.242056131362915,-5.605140209197998) translate(-19.057477951049805,93.04532623291016) translate(323.6366882324219,-9.856955528259277) translate(837.8411865234375,-243.1382293701172) translate(42937.59765625,0) translate(0,29958.125) ">
       <rect stroke="null" height="437.1" width="1637.7" y="0.2" id="svg_11"/>
      </defs>
      <clipPath stroke="null" transform="translate(1.0969984531402588,0) translate(1.0969984531402588,0) translate(1.0969984531402588,0) translate(1.0969984531402588,0) translate(1.0969984531402588,0) translate(1.0969984531402588,0) translate(1.0969984531402588,0) translate(1.0969984531402588,0) translate(1.0969984531402588,0) translate(1.0969984531402588,0) translate(1.0969984531402588,0) translate(-1.0969984531402588,0) translate(-1.0969984531402588,0) translate(-1.0969984531402588,0) translate(-1.0969984531402588,0) translate(1.0969984531402588,0) translate(-1.0969984531402588,0) translate(-1.0969984531402588,0) translate(-1.0969984531402588,0) translate(-1.0969984531402588,0) translate(1.0969984531402588,0) translate(1.0969984531402588,0) translate(1.0969984531402588,0) translate(1.0969984531402588,0) translate(1.0969984531402588,0) translate(1.0969984531402588,0) translate(1.0969984531402588,0) translate(1.0969984531402588,0) translate(1.0969984531402588,0) translate(1.0969984531402588,0) translate(1.0969984531402588,0) translate(1.0969984531402588,0) translate(1.0969984531402588,0) translate(1.0969984531402588,0) translate(1.0969984531402588,0) translate(1.0969984531402588,0) translate(1.0969984531402588,0) translate(1.0969984531402588,0) translate(1.0969984531402588,0) translate(1.0969984531402588,0) translate(1.0969984531402588,0) translate(1.0969984531402588,0) translate(1.0969984531402588,0) translate(1.0969984531402588,0) translate(1.0969984531402588,0) translate(1.0969984531402588,0) translate(1.0969984531402588,0) translate(1.0969984531402588,0) translate(1.0969984531402588,0) translate(1.0969984531402588,0) translate(1.0969984531402588,0) translate(1.0969984531402588,0) translate(1.0969984531402588,0) translate(1.0969984531402588,0) translate(1.0969984531402588,0) translate(1.0969984531402588,0) translate(1.0969984531402588,0) translate(1.0969984531402588,0) translate(1.0969984531402588,0) translate(1.0969984531402588,0) translate(1.0969984531402588,0) translate(1.0969984531402588,0) translate(1.0969984531402588,0) translate(1.0969984531402588,0) translate(1.0969984531402588,0) translate(1.0969984531402588,0) translate(1.0969984531402588,0) translate(1.0969984531402588,0) translate(1.0969984531402588,0) translate(1.0969984531402588,0) translate(1.0969984531402588,0) translate(1.0969984531402588,0) translate(1.0969984531402588,0) translate(1.0969984531402588,0) translate(1.0969984531402588,0) translate(0,-1.0969984531402588) translate(0,-1.0969984531402588) translate(0,-1.0969984531402588) translate(0,-1.0969984531402588) translate(52.392173767089844,19.36232566833496) translate(1.1799933910369873,-3.637978807091713e-12) translate(1.1799933910369873,-3.637978807091713e-12) translate(1.1799933910369873,-3.637978807091713e-12) translate(1.1799933910369873,-3.637978807091713e-12) translate(1.1799933910369873,-3.637978807091713e-12) translate(1.1799933910369873,-3.637978807091713e-12) translate(1.1799933910369873,-3.637978807091713e-12) translate(-1.1799933910369873,-3.637978807091713e-12) translate(-1.1799933910369873,-3.637978807091713e-12) translate(-1.1799933910369873,-3.637978807091713e-12) translate(-1.1799933910369873,-3.637978807091713e-12) translate(-1.1799933910369873,-3.637978807091713e-12) translate(-1.1799933910369873,-3.637978807091713e-12) translate(-1.1799933910369873,-3.637978807091713e-12) translate(-1.1799933910369873,-3.637978807091713e-12) translate(-1.1799933910369873,-3.637978807091713e-12) translate(-1.1799933910369873,-3.637978807091713e-12) translate(-1.1799933910369873,-3.637978807091713e-12) translate(-1.1799933910369873,-3.637978807091713e-12) translate(-1.1799933910369873,-3.637978807091713e-12) translate(-1.1799933910369873,-3.637978807091713e-12) translate(-1.1799933910369873,-3.637978807091713e-12) translate(-1.1799933910369873,-3.637978807091713e-12) translate(-1.1799933910369873,-3.637978807091713e-12) translate(-1.1799933910369873,-3.637978807091713e-12) translate(-1.1799933910369873,-3.637978807091713e-12) translate(-1.1799933910369873,-3.637978807091713e-12) translate(-1.1799933910369873,-3.637978807091713e-12) translate(-1.1799933910369873,-3.637978807091713e-12) translate(-1.1799933910369873,-3.637978807091713e-12) translate(0,-1.1799933910369873) translate(0,-1.1799933910369873) translate(0,-1.1799933910369873) translate(-1.1799933910369873,-3.637978807091713e-12) translate(-1.1799933910369873,-3.637978807091713e-12) translate(-1.1799933910369873,-3.637978807091713e-12) translate(0,4.719973564147949) translate(14.159920692443848,-1.1799933910369873) translate(50.739715576171875,5.899967193603516) translate(-157.67239379882812,-23.223064422607422) translate(-19.73275375366211,3.637978807091713e-12) translate(-2.242056131362915,-5.605140209197998) translate(-19.057477951049805,93.04532623291016) translate(323.6366882324219,-9.856955528259277) translate(837.8411865234375,-243.1382293701172) translate(42937.59765625,0) translate(0,29958.125) " id="svg_10">
       <use stroke="null" id="svg_18" xlink:href="#svg_11"/>
      </clipPath>
      <path stroke="null" id="svg_19" d="m44645.765694,30038.021236c0,39.7 -25.9,67.9 -63.9,67.9c-37.1,0 -64.6,-26.7 -64.6,-63.6s26.9,-63.8 64.3,-63.8c27.5,0 50.7,14.9 59.7,37.1l-31.8,10.9c-4.4,-10.2 -15.2,-16.8 -27.6,-16.8c-18.2,0 -30.4,13.1 -30.4,32.5c0,19.2 12,32.3 30.4,32.3c12.7,0 23.7,-6.2 27.5,-15.5l-30.1,0l0,-21.1l66.5,0.1z" class="st1"/>
      <path stroke="null" id="svg_20" d="m44757.365694,30055.221236c0,2.8 -0.2,5.6 -0.7,8.5l-69.4,0c2.1,10.7 8.9,16.3 19.1,16.3c7.5,0 13.8,-3.3 16.9,-8.8l28,9.6c-8.7,15.7 -25.2,25.1 -44.9,25.1c-29.2,0 -50.8,-21.3 -50.8,-49.9c0,-28.7 21.4,-49.8 50.8,-49.8c30.2,0 51,21.5 51,49m-69.5,-9.3l37.8,0c-2.8,-9.3 -9.6,-14.4 -19.3,-14.4c-9.4,0 -15.9,5.1 -18.5,14.4" class="st1"/>
      <path stroke="null" id="svg_21" d="m44833.765694,30074.621236l0,28.2l-22.2,0c-20.7,0 -33.3,-12.6 -33.3,-33.4l0,-35.3l-17.1,0l0,-25.1l17.3,0.1l0.1,-9.2l31.2,-10.6l0,20l23.4,0l0,24.8l-22.7,0l0,29.8c0,6.7 4,10.7 10.8,10.7l12.5,0z" class="st1"/>
      <path stroke="null" id="svg_22" d="m44914.465694,30105.921236c-36.9,0 -64.5,-27.3 -64.5,-63.6c0,-36.5 27.6,-63.8 64.5,-63.8c27.9,0 50.3,16.2 58.7,41l-31.2,10.7c-4.2,-12.4 -14.6,-20.5 -27.4,-20.5c-17.2,0 -29.8,13.8 -29.8,32.6c0,18.7 12.6,32.3 29.8,32.3c13.1,0 23.4,-8.2 27.1,-21l31.6,10.9c-8.4,25.1 -30.8,41.4 -58.8,41.4" class="st1"/>
      <path stroke="null" id="svg_23" d="m44982.065694,30056.121236c0,-29 21.9,-49.8 52.4,-49.8c30.4,0 52.4,20.8 52.4,49.8c0,28.9 -22,49.8 -52.4,49.8c-30.4,0 -52.4,-21 -52.4,-49.8m52.5,20.8c11.7,0 20.2,-8.5 20.2,-20.9c0,-12.3 -8.4,-20.9 -20.2,-20.9c-11.8,0 -20.2,8.5 -20.2,20.9c0,12.4 8.4,20.9 20.2,20.9" class="st1"/>
      <path stroke="null" id="svg_24" d="m45245.265694,30044.221236l0,58.7l-32.2,0l0,-54.7c0,-9.8 -3.6,-14.5 -10.4,-14.5c-8.9,0 -13.4,6.1 -13.4,17.9l0,51.3l-31.4,0l0,-54.7c0,-9.5 -3.6,-14.5 -10.3,-14.5c-8.7,0 -13.5,6.2 -13.5,17.9l0,51.3l-32.2,0l0,-93.6l22.7,0l4.6,10c6.8,-7.9 16.6,-12.8 27.3,-12.8c11.4,0 21,5.1 26.8,13.8c6.7,-8.5 17.1,-13.8 28.7,-13.8c20,0 33.3,15.6 33.3,37.7" class="st1"/>
      <path stroke="null" id="svg_25" d="m45368.165694,30056.121236c0,29.1 -20.4,49.9 -49,49.9c-8.5,0 -16.2,-2.2 -22.8,-6.2l0,36.8l-31.8,0l0,-127.3l21.9,0l4,7.4c7.7,-6.7 17.6,-10.5 28.7,-10.5c28.5,0 49,20.7 49,49.9m-32.4,-0.1c0,-12.3 -8.9,-21.4 -20.9,-21.4s-20.9,9.1 -20.9,21.4s8.9,21.4 20.9,21.4c11.9,0.1 20.9,-9.1 20.9,-21.4" class="st1"/>
      <rect stroke="null" id="svg_26" height="127.3" width="32.2" class="st1" y="29975.521236" x="45382.965694"/>
      <path stroke="null" id="svg_27" d="m45435.365694,30014.321236l32.2,0l0,88.6l-32.2,0l0,-88.6zm0.3,-39l31.7,0l0,27.3l-31.7,0l0,-27.3z" class="st1"/>
      <path stroke="null" id="svg_28" d="m45584.265694,30055.221236c0,2.8 -0.2,5.6 -0.7,8.5l-69.4,0c2.1,10.7 8.9,16.3 19.1,16.3c7.5,0 13.8,-3.3 16.9,-8.8l28,9.6c-8.7,15.7 -25.2,25.1 -44.9,25.1c-29.2,0 -50.8,-21.3 -50.8,-49.9c0,-28.7 21.4,-49.8 50.8,-49.8c30.1,0 51,21.5 51,49m-69.6,-9.3l37.8,0c-2.8,-9.3 -9.6,-14.4 -19.3,-14.4c-9.3,0 -15.8,5.1 -18.5,14.4" class="st1"/>
      <path stroke="null" id="svg_29" d="m45697.665694,29975.521236l0,127.3l-23.8,0l-3,-6.9c-7.6,6.4 -17.3,10.1 -28.2,10.1c-28.7,0 -49.1,-20.9 -49.1,-49.9c0,-29.1 20.4,-49.8 49.1,-49.8c8.6,0 16.5,2.3 23.2,6.5l0,-37.2l31.8,-0.1l0,0zm-29.8,80.6c0,-12.2 -8.9,-21.4 -20.9,-21.4s-20.9,9.2 -20.9,21.4c0,12.2 8.9,21.4 20.9,21.4s20.9,-9.2 20.9,-21.4" class="st1"/>
      <path stroke="null" id="svg_30" d="m44312.265694,30226.021236c-1.4,-0.3 -35,-7.4 -68.2,-35.2c-30.6,-25.6 -66.7,-74.1 -65.4,-160.3l0.1,-8.4l14.5,-5c1.2,-8.2 3.9,-21.2 10.2,-35.1c4.8,-10.4 10.8,-19.5 17.9,-27.2c-1.3,0.4 -2.5,0.9 -3.8,1.4c-15,5.6 -35.2,12.1 -58,12.1c-26.6,0 -49.9,-8.9 -69.5,-26.3c-47.1,-42.2 -25,-105.6 -24.1,-108.3l8.3,-23.1l13.1,20.7c0.2,0.3 19.2,29.2 52.6,33.5c-4,-8 -6.7,-18.6 -5.8,-32.1l1.2,-17.1l15.7,7c0.1,0 13.6,5.8 32.5,5.8c17.8,0 34.5,-4.9 49.6,-14.7c24.4,-15.7 45.5,-23.3 64.7,-23.3c26.4,0 48.5,14.4 65.8,43l9.8,-4.9l6.1,6.7c0.5,0.6 12.8,14.2 18.4,35c4.6,17.2 5.4,42.2 -13.6,68.8c15.9,11.8 42.3,37 49.4,78.8l15.2,4.8l0.8,7.9c0.2,1.5 3.7,38.2 -10.5,80.5c-13.3,39.5 -45.1,91.5 -121.2,114.8l-2.9,0.9l-2.9,-0.7z" class="st2"/>
      <path stroke="null" id="svg_31" d="m44437.965694,30031.621236l-14.9,-4.7c-6.2,-59.4 -56.3,-85.2 -56.3,-85.2c47.2,-51.2 4.1,-98.5 4.1,-98.5l-11.9,5.9c-30.2,-59.2 -71.9,-55.8 -119.1,-25.5c-47.2,30.3 -93.5,9.7 -93.5,9.7c-2.2,31.4 19.3,42 19.3,42c-56.9,12 -88.4,-37.6 -88.4,-37.6s-20.9,58 20.9,95.4s92.2,20.6 115.3,11.9c34.6,-13 63.3,-7.4 63.3,-7.4c-69.7,14.1 -72.3,88.4 -72.3,88.4l-13.8,4.7c-2.5,157.6 124,183.5 124,183.5c137.8,-42.1 123.3,-182.6 123.3,-182.6m-124.2,-25.9l-77.5,26.4l-13.2,4.5l13.2,-4.5l77.5,-26.4zm-79.3,137.4c-15.6,-22.4 -27.4,-53.4 -28.8,-96.2c0,-1.4 -0.1,-2.9 -0.1,-4.3c0,1.5 0.1,2.9 0.1,4.3c1.4,42.8 13.2,73.8 28.8,96.2c13.9,20 30.7,33.2 45.5,41.8c-14.8,-8.6 -31.6,-21.7 -45.5,-41.8m48.3,43.3c1.8,1 3.6,1.9 5.4,2.8c-1.8,-0.8 -3.6,-1.8 -5.4,-2.8m10.4,5.2c1.6,0.7 3.2,1.4 4.8,2c-1.5,-0.6 -3.1,-1.3 -4.8,-2m11.2,4.4c-1.3,-0.5 -2.7,-1 -4.2,-1.5c1.5,0.6 2.9,1.1 4.2,1.5c3.9,1.4 7.2,2.3 9.4,2.8c-2.2,-0.5 -5.5,-1.4 -9.4,-2.8" class="st2"/>
      <path stroke="null" id="svg_32" d="m44437.965694,30031.621236c0,0 14.5,140.4 -123.3,182.6c0,0 -126.4,-25.9 -124,-183.5l13.8,-4.7c0,0 2.5,-74.3 72.3,-88.4c0,0 -28.7,-5.6 -63.3,7.4c-23.1,8.7 -73.5,25.4 -115.3,-11.9c-41.8,-37.3 -20.9,-95.4 -20.9,-95.4s31.4,49.5 88.2,37.8c0,0 -21.4,-10.6 -19.3,-42c0,0 46.3,20.6 93.5,-9.7c47.2,-30.4 89,-33.7 119.1,25.5l11.9,-5.9c0,0 43.1,47.3 -4.1,98.5c0,0 50.1,25.8 56.3,85.2l15.1,4.5zm-95.1,-115.2c0,0 20.9,-28.8 -5.8,-74.8c-16.9,-24.3 -33.2,-24.3 -39.1,-24.3c-13.7,0 -30.6,6.4 -50.2,19c-2.3,1.5 -4.6,2.9 -7,4.2c-17.7,9.8 -37,14.7 -57.1,14.3c-7,-0.2 -13.5,-0.2 -19.1,-1.1c15.2,20.5 30.8,20.6 31,20.6c0,0 -37.6,44.6 -108.7,-4.6c0,1.8 0,3.7 0.1,5.6c0.8,15.1 6,32.6 21.9,46.1c25.3,21.5 46.5,24.7 109.3,4.9c27.1,-8.6 54.9,-9.4 68.8,-2.9c8.3,3.9 12.7,9.8 15.2,15c0,0 0.1,-0.1 0.1,-0.3c2.5,-4.6 36.9,-68.9 -42.4,-81.2c-0.1,0.1 72.2,-20.4 83,59.5m-29.1,282.4l0,-193.1l-77.5,26.4l-30.8,10.5c0,1.5 0.1,2.9 0.1,4.3c1.4,42.8 13.3,73.8 28.8,96.2c27.8,40.1 67.3,52.7 79.4,55.7m-66.8,-192.3l33,-0.9c-1,-38.3 12.2,-56 12.2,-56c-45.8,2.7 -63.4,35.5 -69.2,57.5l24,-0.6z" class="st1"/>
      <path stroke="null" id="svg_33" d="m44337.065694,29841.621236c26.7,46 5.8,74.8 5.8,74.8c-10.8,-79.9 -83.1,-59.4 -83.1,-59.4c17.7,-17.9 36.1,-14.3 36.1,-14.3c-12.6,-12.2 -32.1,-11.5 -55.2,-2.2c2.4,-1.3 4.7,-2.7 7,-4.2c19.6,-12.6 36.5,-19 50.2,-19c6,-0.1 22.3,-0.1 39.2,24.3" class="st3"/>
      <path stroke="null" id="svg_34" d="m44259.765694,29857.021236c79.3,12.3 45,76.6 42.4,81.2c0,-5.1 -1.9,-85.4 -108.6,-29.4c-21.7,11.4 -103,29.9 -106.7,-33.5c-0.1,-1.9 -0.1,-3.8 -0.1,-5.6c71.1,49.2 108.7,4.6 108.7,4.6c-0.3,0 -15.8,-0.1 -31.1,-20.6c5.6,0.9 12.1,0.9 19.1,1.1c20.1,0.4 39.4,-4.5 57.1,-14.3c23.1,-9.3 42.6,-9.9 55.2,2.2c0.2,0 -18.3,-3.6 -36,14.3" class="st2"/>
      <path stroke="null" id="svg_35" d="m44302.265694,29938.221236c-0.1,0.2 -0.1,0.3 -0.1,0.3c-2.4,-5.2 -6.9,-11.1 -15.2,-15c-13.9,-6.5 -41.7,-5.7 -68.8,2.9c-62.8,19.9 -84,16.6 -109.3,-4.9c-15.9,-13.5 -21.1,-31 -21.9,-46.1c3.7,63.4 85,44.9 106.7,33.5c106.7,-56.2 108.6,24.1 108.6,29.3" class="st3"/>
      <path stroke="null" id="svg_36" d="m44279.965694,30005.721236l-33,0.9c0,-38.6 45.2,-56.9 45.2,-56.9s-13.2,17.7 -12.2,56" class="st3"/>
      <path stroke="null" id="svg_37" d="m44292.265694,29949.721236c0,0 -45.2,18.3 -45.2,56.9l-24,0.6c5.7,-22 23.3,-54.8 69.2,-57.5" class="st2"/>
      <path stroke="null" id="svg_38" d="m44236.365694,30032.121236l-30.8,10.5c0,1.5 0.1,2.9 0.1,4.3c1.4,42.8 13.3,73.8 28.8,96.2c27.7,40.1 67.2,52.7 79.3,55.7l0,-193.1l-77.4,26.4z" class="st4"/>
      <path stroke="null" id="svg_39" d="m44284.965694,30100.021236l0,68.4c-4.6,-3.3 -9.9,-7.4 -15.6,-12.5l0,-61.4c4.9,2 10.1,3.9 15.6,5.5" class="st1"/>
      <path stroke="null" id="svg_40" d="m44254.465694,30087.321236l0,53c-5,-6 -9.9,-12.9 -14.3,-20.5l0,-41.5c4.1,2.9 8.9,6 14.3,9" class="st1"/>
      <path stroke="null" id="svg_41" d="m44342.065694,30100.021236l0,68.4c4.6,-3.3 9.9,-7.4 15.6,-12.5l0,-61.4c-4.9,2 -10.1,3.9 -15.6,5.5" class="st3"/>
      <path stroke="null" id="svg_42" d="m44372.465694,30087.321236l0,53c5,-6 9.9,-12.9 14.3,-20.5l0,-41.5c-4,2.9 -8.8,6 -14.3,9" class="st3"/>
      <path stroke="null" id="svg_43" d="m44575.165694,30182.721236c-0.1,17.5 -11.8,30.5 -28.6,30.5c-16.5,0 -29,-12.4 -29,-29.2c0,-16.8 12.2,-29.3 28.8,-29.3c12.4,0 23,7 26.9,17.4l-11.3,3.9c-2.4,-6 -8.3,-9.8 -15.4,-9.8c-9.9,0 -16.7,7.2 -16.7,17.7c0,10.4 6.6,17.6 16.7,17.6c7.2,0 13.5,-3.8 15.6,-9.6l-16.8,0l0,-9.3l29.8,0l0,0.1z" class="st1"/>
      <path stroke="null" id="svg_44" d="m44634.165694,30183.921236c0,16.2 -12,28.1 -28.4,28.1l-21.2,0l0,-56l21.2,0c16.4,0 28.4,11.7 28.4,27.9m-12.5,0c0,-9.9 -6.7,-16.7 -16.3,-16.7l-8.8,0l0,33.5l8.8,0c9.7,0 16.3,-7 16.3,-16.8" class="st1"/>
      <path stroke="null" id="svg_45" d="m44685.165694,30175.221236c0,11 -8.5,19.3 -19.8,19.3l-9.4,0l0,17.5l-12.1,0l0,-56l21.5,0c11.2,0 19.8,8.2 19.8,19.2m-12.3,0c0,-4.7 -3.2,-8 -8,-8l-8.9,0l0,16.1l8.9,0c4.8,0 8,-3.4 8,-8.1" class="st1"/>
      <path stroke="null" id="svg_46" d="m44713.465694,30192.921236l-7.8,0l0,19.1l-12.1,0l0,-56l22.6,0c11.2,0 19.6,7.7 19.6,18.5c0,7.3 -4,13.3 -10.2,16.3l12.4,21.2l-13.5,0l-11,-19.1zm-7.8,-11.2l9.7,0c5.1,0 8.1,-3 8.1,-7.3c0,-4.2 -3,-7.3 -8.1,-7.3l-9.7,0l0,14.6z" class="st1"/>
      <path stroke="null" id="svg_47" d="m44791.265694,30213.221236c-16.4,0 -28.9,-12.6 -28.9,-29.1c0,-16.7 12.5,-29.3 28.9,-29.3c12.3,0 22.3,7.3 26.1,18.5l-11.1,3.8c-2.3,-6.6 -7.9,-10.7 -15,-10.7c-9.5,0 -16.6,7.6 -16.6,17.7c0,10.1 7.2,17.6 16.6,17.6c7.4,0 13,-4.5 15.1,-11.5l11.3,3.9c-3.8,11.5 -13.9,19.1 -26.4,19.1" class="st1"/>
      <path stroke="null" id="svg_48" d="m44823.665694,30190.421236c0,-13.1 10,-22.8 23.4,-22.8c13.3,0 23.4,9.7 23.4,22.8c0,13 -10,22.8 -23.4,22.8c-13.5,0 -23.4,-9.8 -23.4,-22.8m34.8,0c0,-7 -4.8,-11.8 -11.5,-11.8c-6.7,0 -11.5,4.8 -11.5,11.8s4.8,11.8 11.5,11.8c6.7,0 11.5,-4.8 11.5,-11.8" class="st1"/>
      <path stroke="null" id="svg_49" d="m44943.065694,30184.921236l0,27.1l-11.7,0l0,-25.2c0,-5.8 -2.3,-8.8 -6.5,-8.8c-5.2,0 -8.3,3.8 -8.3,10.6l0,23.4l-11.4,0l0,-25.2c0,-5.8 -2.2,-8.8 -6.4,-8.8c-5.3,0 -8.4,3.8 -8.4,10.6l0,23.4l-11.7,0l0,-43.2l8.2,0l2.2,5.4c3.1,-3.9 7.8,-6.4 12.9,-6.4c5.5,0 10,2.6 12.5,6.9c3,-4.2 7.9,-6.9 13.4,-6.9c8.9,-0.1 15.2,7 15.2,17.1" class="st1"/>
      <path stroke="null" id="svg_50" d="m44977.265694,30167.521236c13,0 22.6,9.7 22.6,22.8c0,13.1 -9.6,22.9 -22.6,22.9c-4.5,0 -8.5,-1.3 -11.9,-3.6l0,17.9l-11.7,0l0,-58.8l7.7,0l2,3.9c3.8,-3.2 8.5,-5.1 13.9,-5.1m10.8,22.9c0,-6.8 -5,-11.8 -11.8,-11.8c-6.8,0 -11.8,5.1 -11.8,11.8c0,6.7 5,11.8 11.8,11.8c6.9,0 11.8,-5 11.8,-11.8" class="st1"/>
      <rect stroke="null" id="svg_51" height="58.8" width="11.7" class="st1" y="30153.221236" x="45008.265694"/>
      <path stroke="null" id="svg_52" d="m45031.165694,30168.821236l11.7,0l0,43.2l-11.7,0l0,-43.2zm0,-16.7l11.6,0l0,10.9l-11.6,0l0,-10.9z" class="st1"/>
      <path stroke="null" id="svg_53" d="m45098.065694,30168.721236l0,43.2l-9.2,0l-1,-3.9c-3.7,3.2 -8.5,5.2 -14,5.2c-13,0 -22.7,-9.8 -22.7,-22.9c0,-13 9.7,-22.8 22.7,-22.8c5.5,0 10.5,2 14.2,5.3l1.2,-4.1l8.8,0zm-11.5,21.6c0,-6.8 -5,-11.8 -11.8,-11.8c-6.8,0 -11.8,5.1 -11.8,11.8c0,6.8 5,11.8 11.8,11.8c6.8,0 11.8,-5 11.8,-11.8" class="st1"/>
      <path stroke="null" id="svg_54" d="m45149.865694,30185.821236l0,26.2l-11.7,0l0,-24.3c0,-6.5 -2.5,-9.7 -7.5,-9.7c-6,0 -9.7,4.3 -9.7,11.3l0,22.7l-11.7,0l0,-43.2l8,0l2.3,5.3c3.3,-3.9 8.4,-6.4 14.3,-6.4c9.8,0 16,7.1 16,18.1" class="st1"/>
      <path stroke="null" id="svg_55" d="m45180.665694,30213.221236c-13,0 -22.9,-10 -22.9,-23s9.9,-22.7 23,-22.7c11.2,0 19.9,7.1 22,17.7l-11.6,0c-1.9,-4.2 -5.8,-6.7 -10.4,-6.7c-6.3,0 -11.1,5.1 -11.1,11.8c0,6.7 4.8,11.9 11.1,11.9c4.7,0 8.5,-2.6 10.4,-7.2l10.8,3.7c-3.3,8.8 -11.4,14.5 -21.3,14.5" class="st1"/>
      <path stroke="null" id="svg_56" d="m45252.465694,30190.221236c0,1.1 -0.1,2.3 -0.2,3.4l-32.7,0c1,5.9 4.9,9.1 10.6,9.1c4.1,0 7.4,-1.9 9.2,-5l10.7,3.7c-3.9,7.3 -11.2,11.7 -19.9,11.7c-12.8,0 -22.4,-9.9 -22.4,-22.8c0,-13 9.6,-22.8 22.4,-22.8c13.2,0 22.3,10.3 22.3,22.7m-32.6,-4.5l20.9,0c-1.7,-5.3 -5.4,-8.1 -10.7,-8.1c-5.2,-0.1 -8.9,2.9 -10.2,8.1" class="st1"/>
     </g>
    </g>
   </g>
  </g>
 </g>
</svg>